<?xml version="1.0" standalone="no"?>
<!DOCTYPE svg PUBLIC "-//W3C//DTD SVG 20010904//EN"
 "http://www.w3.org/TR/2001/REC-SVG-20010904/DTD/svg10.dtd">
<svg version="1.0" xmlns="http://www.w3.org/2000/svg"
 width="2000.000000pt" height="736.000000pt" viewBox="0 0 2000.000000 736.000000"
 preserveAspectRatio="xMidYMid meet">

<g transform="translate(0.000000,736.000000) scale(0.100000,-0.100000)"
fill="#000000" stroke="none">
<path d="M10939 7267 l-156 -82 -578 -665 c-319 -366 -627 -721 -687 -788
l-108 -124 120 -141 c66 -78 116 -144 112 -148 -4 -3 -63 -36 -132 -72 l-125
-66 -563 500 -563 500 -167 -90 -167 -90 -30 -58 -30 -58 -5 131 -5 130 -910
-290 -911 -291 -167 -89 c-150 -80 -167 -92 -167 -115 -1 -82 44 -937 50 -944
4 -4 70 8 148 27 78 20 145 36 151 36 5 0 12 -26 16 -57 3 -32 8 -78 11 -103
l5 -46 -188 0 c-210 1 -332 -18 -505 -75 -115 -39 -291 -123 -382 -183 -38
-25 -71 -46 -74 -46 -2 0 -1 19 3 43 21 131 25 175 25 307 1 290 -73 524 -244
775 -219 321 -634 602 -1028 695 -111 26 -326 58 -473 70 -553 45 -1210 -76
-1850 -342 -295 -123 -562 -264 -894 -473 -184 -117 -205 -133 -334 -263
l-137 -138 445 -749 c245 -413 448 -751 453 -753 4 -1 79 29 167 67 88 38 163
66 167 62 3 -3 198 -440 431 -971 850 -1929 998 -2265 1007 -2274 5 -5 295 84
687 210 l678 219 159 107 c88 59 163 109 168 110 5 2 -51 237 -126 523 -167
645 -156 593 -112 521 106 -173 262 -343 392 -429 156 -103 329 -172 504 -203
139 -24 397 -15 540 19 244 58 484 180 703 357 l62 50 6 -37 c4 -21 15 -134
25 -250 10 -117 20 -213 23 -213 3 0 293 43 644 95 l638 94 170 89 170 88 -1
407 c0 228 3 407 8 407 5 0 450 -219 988 -486 538 -268 1069 -530 1180 -584
l200 -97 160 87 159 86 3 560 2 560 73 11 c167 27 382 106 571 209 65 35 120
63 121 62 2 -2 -19 -133 -46 -293 -27 -159 -48 -296 -46 -304 1 -11 168 -41
707 -127 388 -63 716 -114 729 -114 13 0 83 32 156 70 73 39 135 70 138 70 3
0 42 -69 87 -152 45 -84 86 -157 90 -161 4 -5 66 23 136 62 71 39 130 67 131
63 2 -4 14 -101 28 -216 14 -116 26 -210 28 -211 1 -1 47 -9 102 -18 55 -9
426 -75 825 -146 l725 -129 155 85 c85 47 159 89 164 94 8 7 -31 301 -50 385
-5 20 1 22 78 33 126 18 237 47 332 85 47 19 86 31 86 28 0 -4 -14 -122 -30
-262 -16 -140 -30 -268 -30 -285 l0 -30 542 -78 c298 -43 544 -80 547 -83 2
-2 7 -103 9 -224 l5 -220 161 -51 c88 -28 343 -109 566 -180 222 -71 408 -129
412 -129 5 0 306 157 335 175 1 0 331 991 733 2202 574 1731 730 2212 730
2251 l0 50 -312 76 c-172 42 -513 125 -758 185 l-445 108 -121 -63 c-67 -35
-124 -64 -127 -64 -3 0 -13 43 -23 95 -12 66 -22 96 -33 100 -36 11 -1791 395
-1806 395 -9 0 -88 -39 -177 -87 l-161 -86 5 -464 5 -463 -56 0 c-80 0 -252
-25 -349 -49 -165 -43 -333 -116 -475 -207 -45 -29 -69 -40 -72 -32 -2 7 -63
389 -135 848 -72 459 -134 845 -137 858 l-5 22 -599 0 -600 0 -169 -91 c-94
-50 -170 -95 -170 -100 0 -5 -224 -10 -497 -11 l-498 -3 -150 -83 c-82 -46
-155 -89 -161 -95 -6 -7 -26 -102 -44 -212 -18 -110 -34 -202 -35 -203 -2 -2
-34 22 -71 53 -250 212 -604 354 -932 372 -57 3 -99 10 -95 14 4 4 246 135
536 292 291 156 529 288 529 293 0 21 -738 1113 -752 1113 -8 0 -85 -37 -171
-82z m326 -687 l195 -265 -562 -282 c-310 -155 -568 -282 -574 -282 -13 -1
-87 106 -82 120 7 20 811 980 819 977 5 -2 97 -122 204 -268z m3289 -943 c16
-90 246 -1600 246 -1617 0 -11 -21 -46 -47 -78 -145 -178 -260 -411 -319 -645
-35 -139 -45 -405 -20 -547 73 -415 340 -757 724 -926 7 -3 34 -205 28 -211
-5 -5 -895 125 -904 132 -2 2 -241 1571 -242 1593 -1 11 -61 -139 -207 -516
l-137 -354 -31 64 c-18 34 -132 280 -255 546 -123 265 -226 482 -230 482 -4 0
-10 -17 -13 -37 -11 -82 -187 -1189 -192 -1209 -4 -20 -8 -20 -62 -12 -92 15
-745 128 -774 133 l-26 6 60 357 59 357 184 186 c101 102 184 190 184 195 0 5
-59 61 -130 124 -72 63 -130 120 -130 126 0 18 279 1677 285 1692 3 9 99 12
434 12 l429 0 10 -47 c6 -27 54 -290 108 -585 54 -296 99 -536 100 -535 1 1
54 297 118 657 64 360 118 664 121 675 4 20 11 20 313 17 l310 -3 6 -32z
m-5571 -561 l197 -189 -52 -56 c-29 -31 -277 -294 -553 -584 -275 -291 -501
-532 -503 -537 -3 -7 321 -138 898 -364 145 -57 146 -58 170 -104 74 -140 256
-337 415 -451 189 -133 458 -241 698 -278 l117 -18 0 -377 0 -378 -1340 670
-1340 670 -2 -702 -3 -703 -55 -7 c-30 -4 -183 -25 -340 -47 -165 -23 -287
-36 -290 -31 -3 5 -16 134 -28 287 l-23 279 60 124 c33 69 74 166 90 217 163
501 69 1018 -248 1365 l-50 55 -50 582 c-27 320 -51 585 -54 588 -4 3 -72 -12
-152 -32 -80 -21 -147 -36 -150 -33 -3 3 -8 70 -12 149 l-6 144 552 164 c303
90 554 161 557 158 3 -3 19 -225 35 -494 15 -268 32 -521 36 -562 l8 -74 270
379 c148 208 332 466 408 572 l139 193 201 -193 c111 -106 291 -278 400 -382z
m-5583 404 c266 -40 405 -87 589 -198 127 -77 193 -125 277 -204 130 -122 253
-317 303 -480 176 -579 -235 -1359 -981 -1866 -54 -36 -98 -70 -98 -76 0 -6
101 -400 225 -875 124 -475 224 -865 223 -866 -2 -1 -39 -13 -83 -27 -44 -14
-208 -67 -364 -117 -157 -50 -288 -88 -291 -84 -4 5 -346 765 -760 1691 -414
925 -754 1682 -756 1682 -1 0 -85 -41 -185 -90 -101 -50 -186 -87 -190 -83 -6
7 -134 221 -499 840 l-49 82 127 74 c561 330 1210 553 1792 616 153 17 556 6
720 -19z m7625 -205 c268 -57 471 -164 659 -347 l99 -96 -94 -102 c-52 -57
-302 -324 -556 -594 -515 -548 -492 -515 -334 -496 122 15 233 45 328 90 110
51 157 85 274 197 l98 95 286 -257 c157 -141 285 -261 285 -265 0 -13 -172
-168 -257 -231 -231 -173 -543 -312 -863 -383 -156 -34 -261 -46 -410 -46
-370 0 -684 118 -920 346 -227 219 -333 483 -333 829 1 163 21 279 75 421 174
462 636 784 1228 858 79 10 357 -2 435 -19z m6275 -141 c316 -64 578 -119 582
-123 4 -3 83 -368 177 -811 184 -874 229 -1080 230 -1067 1 10 218 912 333
1382 38 160 73 293 77 297 6 6 887 -185 897 -195 5 -5 -1252 -3825 -1267
-3849 -5 -8 -24 -6 -71 6 -98 28 -561 166 -564 169 -3 3 -54 2103 -54 2221 0
44 -2 77 -5 75 -2 -3 -70 -376 -150 -829 -80 -454 -150 -849 -156 -879 l-11
-53 -36 5 c-166 24 -648 101 -651 104 -3 2 6 118 19 259 l24 255 84 82 c601
588 683 1459 187 1995 l-67 72 26 283 c15 155 28 291 30 303 2 19 -10 24 -126
54 l-128 34 0 50 c0 28 3 102 7 164 5 93 9 112 22 112 9 0 274 -52 591 -116z
m-1020 -897 c219 -56 401 -178 525 -352 210 -295 228 -697 50 -1070 -109 -228
-282 -428 -488 -566 -148 -99 -269 -152 -446 -197 -94 -23 -125 -26 -266 -26
-140 1 -172 4 -259 27 -338 90 -572 326 -668 673 -18 67 -21 105 -21 244 0
145 3 176 26 262 69 259 192 465 391 655 208 199 451 323 726 368 122 21 309
12 430 -18z m-7311 -496 c6 -30 10 -56 8 -57 -1 -2 -88 29 -191 69 l-188 72
173 169 174 168 6 -183 c4 -101 12 -208 18 -238z m-2854 244 c246 -52 466
-198 601 -402 388 -582 61 -1476 -667 -1822 -384 -183 -791 -171 -1106 34
-149 98 -256 224 -338 399 -61 130 -86 235 -92 393 -9 226 34 412 148 634 215
417 629 717 1075 778 94 13 282 6 379 -14z"/>
<path d="M3221 4455 c-85 -19 -155 -42 -216 -73 -27 -13 -51 -25 -53 -27 -6
-6 380 -1271 393 -1283 12 -12 241 157 348 257 186 175 267 349 267 572 0 188
-45 305 -156 409 -142 133 -373 190 -583 145z m194 -378 c55 -16 140 -100 154
-152 19 -74 22 -177 8 -243 l-14 -63 23 23 c13 13 39 50 58 82 46 77 47 54 1
-33 -34 -64 -131 -181 -151 -181 -10 0 -185 550 -184 578 0 14 25 12 105 -11z"/>
<path d="M10441 4779 c-238 -42 -450 -243 -505 -479 -33 -139 -11 -316 54
-438 42 -78 109 -161 161 -198 l44 -31 417 471 417 471 -53 51 c-65 62 -126
97 -226 131 -84 28 -220 38 -309 22z m257 -248 c-6 -19 -492 -566 -502 -566
-24 0 -50 99 -50 190 0 105 24 178 79 242 28 33 44 42 94 53 59 12 240 10 271
-4 11 -4 27 9 55 44 36 45 62 65 53 41z"/>
<path d="M15765 4015 c-154 -33 -291 -127 -371 -250 -130 -204 -95 -479 85
-655 116 -114 259 -172 426 -173 329 -2 589 240 589 548 0 80 -26 189 -59 245
-14 24 -14 23 -15 -31 0 -88 -25 -146 -91 -212 -84 -84 -129 -101 -264 -102
-101 0 -115 2 -167 28 -72 35 -137 98 -168 162 -20 40 -25 65 -25 125 0 90 22
145 84 208 41 43 149 102 184 102 9 0 17 5 17 10 0 14 -153 11 -225 -5z"/>
<path d="M5685 3724 c-90 -19 -216 -81 -282 -139 -221 -195 -238 -523 -38
-746 115 -129 265 -193 455 -193 206 0 378 86 484 242 65 94 88 167 94 285 5
108 -5 162 -46 246 l-27 56 -6 -75 c-3 -41 -13 -92 -23 -112 -31 -65 -93 -125
-164 -160 -62 -31 -74 -33 -167 -33 -89 0 -107 3 -160 28 -73 34 -138 95 -173
162 -21 40 -26 64 -26 125 -1 89 22 146 87 211 42 42 146 99 180 99 10 0 15 5
12 10 -9 14 -118 11 -200 -6z"/>
<path d="M18780 720 c0 -5 16 -10 35 -10 l35 0 0 -90 c0 -53 4 -90 10 -90 6 0
10 37 10 90 l0 90 35 0 c19 0 35 5 35 10 0 6 -33 10 -80 10 -47 0 -80 -4 -80
-10z"/>
<path d="M18970 630 c0 -121 18 -135 22 -17 l3 82 28 -83 c17 -48 34 -81 40
-79 7 2 24 37 39 78 l27 74 0 -77 c1 -62 4 -78 16 -78 12 0 15 18 15 100 0 92
-2 100 -19 100 -14 0 -24 -13 -37 -52 -40 -122 -38 -121 -69 -29 -21 64 -31
81 -46 81 -17 0 -19 -8 -19 -100z"/>
</g>
</svg>
